PathFileType	4	(X/Y/Z)	./resultDataOpenSim/trcMotMarkerGrf/sub09/qtm-13-02.trc
DataRate	CameraRate	NumFrames	NumMarkers	Units	OrigDataRate	OrigDataStartFrame	OrigNumFrames
250.000000	250.000000	11	24	m	250.000000	66	523
Frame#	Time	L.Toe.Tip			R.Toe.Tip			L.Ankle.Lat			R.Ankle.Lat			L.Ankle.Med			R.Ankle.Med			L.Heel			R.Heel			L.Knee.Lat			R.Knee.Lat			L.Knee.Med			R.Knee.Med			L.Thigh.Upper			R.Thigh.Upper			L.ASIS			R.ASIS			V.Sacral			L.Acromium			R.Acromium			C7			L.Elbow			R.Elbow			L.Wrist.Lat			R.Wrist.Lat
		X1	Y1	Z1	X2	Y2	Z2	X3	Y3	Z3	X4	Y4	Z4	X5	Y5	Z5	X6	Y6	Z6	X7	Y7	Z7	X8	Y8	Z8	X9	Y9	Z9	X10	Y10	Z10	X11	Y11	Z11	X12	Y12	Z12	X13	Y13	Z13	X14	Y14	Z14	X15	Y15	Z15	X16	Y16	Z16	X17	Y17	Z17	X18	Y18	Z18	X19	Y19	Z19	X20	Y20	Z20	X21	Y21	Z21	X22	Y22	Z22	X23	Y23	Z23	X24	Y24	Z24

66	0.26	-1.3927165	0.097250699	-0.085275187	-0.63873836	0.039166507	0.060313361	-1.4100531	0.25707494	-0.11933127	-0.78719442	0.053804388	0.085028829	-1.3835148	0.23276407	-0.027056176	-0.77100564	0.092792822	-0.0042764206	-1.4697767	0.29913347	-0.06242834	-0.85231469	0.031455092	0.032142435	-1.0342674	0.42549761	-0.15196482	-0.74597171	0.5046006	0.15342158	-1.0174403	0.40819208	-0.028531399	-0.76093211	0.49369123	0.027512419	-0.99625366	0.82945746	-0.15332712	-0.94438539	0.85907965	0.21485844	-0.89558761	0.91321065	-0.1092173	-0.87156496	0.94302377	0.12980043	-1.050266	0.98665745	0.024398871	-0.8836508	1.3833312	-0.14800098	-0.91031339	1.3925984	0.17948461	-0.95929527	1.4383035	0.014208712	-1.0282233	1.0385788	-0.2303275	-1.0563733	1.0674145	0.26907088	-0.80510849	0.88275644	-0.21831076	-0.95112435	0.82061582	0.31968277
67	0.264	-1.379083	0.099216272	-0.086774788	-0.63878915	0.039177005	0.060233797	-1.3972253	0.25892883	-0.11906988	-0.78731919	0.053849625	0.085000615	-1.3709032	0.2341449	-0.026872184	-0.77090425	0.092768068	-0.0043235311	-1.457455	0.30057575	-0.062232946	-0.85239885	0.031451898	0.032128198	-1.0213031	0.42593936	-0.1510446	-0.74301898	0.50438361	0.15350175	-1.0061577	0.40842669	-0.027227923	-0.75869042	0.49351428	0.027456905	-0.98987935	0.83042649	-0.15307764	-0.94097346	0.86053123	0.2150238	-0.89006748	0.91458727	-0.10882156	-0.86591581	0.9444413	0.13008072	-1.0446667	0.98809989	0.024802973	-0.87830984	1.3846779	-0.14797977	-0.90438127	1.3939509	0.179559	-0.95371018	1.4397616	0.014325598	-1.0229577	1.0399513	-0.22958726	-1.0502854	1.0685706	0.26979947	-0.80122482	0.88239813	-0.2185603	-0.94330392	0.8221435	0.31942596
68	0.268	-1.3651057	0.10097337	-0.088151976	-0.6388518	0.039189964	0.060185638	-1.384203	0.2604794	-0.11882818	-0.78746881	0.053864711	0.085001485	-1.3581739	0.23531848	-0.026693516	-0.77083415	0.092757915	-0.0043453511	-1.4449829	0.30174611	-0.062225894	-0.85248007	0.031449772	0.032121675	-1.0084406	0.42654747	-0.15007559	-0.74021901	0.50413562	0.15362864	-0.9951019	0.40880574	-0.025817753	-0.75662952	0.49336637	0.027503247	-0.98375768	0.83152292	-0.15290025	-0.93671217	0.86204502	0.21528161	-0.88461044	0.91606218	-0.10842302	-0.86022234	0.94589848	0.13037088	-1.0391321	0.9895842	0.025170663	-0.87299492	1.3861019	-0.14794955	-0.89854178	1.3953808	0.17964472	-0.94818242	1.4412936	0.014387625	-1.0177345	1.0413738	-0.22887783	-1.0442511	1.0697949	0.27046702	-0.79741495	0.88209222	-0.21879676	-0.93554881	0.82375181	0.31914801
69	0.272	-1.3507681	0.10254066	-0.089389787	-0.6389229	0.039204298	0.060173402	-1.3710196	0.26174252	-0.11861688	-0.78762145	0.053845551	0.085032871	-1.345325	0.23629349	-0.026516698	-0.77079356	0.092758947	-0.0043366017	-1.4324616	0.30259885	-0.062099355	-0.85255188	0.031449895	0.032118828	-0.99563316	0.42731714	-0.14904609	-0.73772099	0.5038718	0.15380659	-0.98353329	0.40940955	-0.02441797	-0.75467634	0.49325967	0.02768663	-0.9776811	0.83273167	-0.15269662	-0.93152083	0.86363279	0.21562511	-0.87919141	0.91761331	-0.10801409	-0.85446414	0.94737296	0.13067778	-1.0336449	0.9911034	0.025515316	-0.86771853	1.3875925	-0.14791744	-0.89279745	1.3968803	0.17974695	-0.94265581	1.4428651	0.014450406	-1.0125358	1.0428587	-0.22817051	-1.0382326	1.0710792	0.27109875	-0.79369737	0.88184045	-0.21902374	-0.92786428	0.82543637	0.31885719
70	0.276	-1.3360631	0.10392887	-0.090476083	-0.63900171	0.039221245	0.060195683	-1.3577057	0.26274125	-0.11844064	-0.78776848	0.053814337	0.085084404	-1.3323698	0.23708237	-0.026316073	-0.77077942	0.092772934	-0.0042965726	-1.4199242	0.30309508	-0.061809314	-0.85261323	0.031450781	0.032114999	-0.98281434	0.42824119	-0.14795398	-0.73558169	0.50362515	0.15403466	-0.9712389	0.41025758	-0.023071508	-0.75274123	0.49319999	0.027955945	-0.97153113	0.83403476	-0.15245674	-0.92586593	0.86527001	0.21600325	-0.87376969	0.91922699	-0.10757729	-0.84866023	0.94884894	0.13101427	-1.0282028	0.99264886	0.025840854	-0.8624811	1.3891398	-0.14787996	-0.88713893	1.398442	0.17986148	-0.93710425	1.4444401	0.014534693	-1.007368	1.0444184	-0.2274651	-1.0322325	1.072425	0.27168918	-0.79006787	0.88164128	-0.21924272	-0.9202601	0.82720353	0.3185599
71	0.28	-1.3209993	0.10513344	-0.091405573	-0.63908896	0.039242259	0.060247419	-1.3442736	0.26349339	-0.11829218	-0.78793282	0.053805988	0.085151733	-1.319389	0.23769465	-0.02604419	-0.77078504	0.092804669	-0.0042291513	-1.4072581	0.30318943	-0.061608268	-0.85266763	0.031449236	0.032108522	-0.96997192	0.42931474	-0.14681	-0.73371246	0.50342968	0.154316	-0.95852482	0.41132059	-0.021757066	-0.75075569	0.49318554	0.028208118	-0.96529974	0.83541657	-0.15229629	-0.9201682	0.86692188	0.21637904	-0.86827913	0.9209193	-0.10709886	-0.84289826	0.95032446	0.13138684	-1.0228024	0.99421607	0.026153996	-0.85727438	1.3907381	-0.14782799	-0.88154003	1.4000601	0.17997517	-0.93154223	1.446005	0.014621571	-1.0022445	1.0460606	-0.22676618	-1.0262621	1.0738312	0.27223026	-0.78651844	0.88149646	-0.21945291	-0.91274358	0.82906041	0.318259
72	0.284	-1.3055957	0.10613654	-0.092173036	-0.63918616	0.039267565	0.060320888	-1.3307182	0.26400227	-0.1181655	-0.78816171	0.053844892	0.085250557	-1.3065794	0.23811062	-0.025636459	-0.77080147	0.092856673	-0.0041408279	-1.3943573	0.30286701	-0.061732332	-0.85271931	0.031444114	0.032102339	-0.95713663	0.43054083	-0.14561327	-0.73198152	0.50328896	0.15463099	-0.94575856	0.41257418	-0.020447106	-0.74870396	0.4932079	0.028379637	-0.95899505	0.83686546	-0.15237241	-0.91461003	0.86856411	0.21674324	-0.86269906	0.92271018	-0.10658736	-0.83735438	0.95180182	0.13177887	-1.0174289	0.99581441	0.026466778	-0.85208986	1.3923816	-0.14775972	-0.87597008	1.4017355	0.18007666	-0.92599374	1.447576	0.014688287	-0.99716653	1.047778	-0.22607382	-1.0203231	1.0752894	0.2727228	-0.78304705	0.8814072	-0.2196529	-0.90531239	0.8310039	0.31795325
73	0.288	-1.2898839	0.10692431	-0.092772221	-0.63929512	0.039296364	0.06040873	-1.3170421	0.26425058	-0.11805418	-0.78847906	0.053931567	0.085394437	-1.2941707	0.23827676	-0.025033736	-0.77082397	0.092924519	-0.0040378861	-1.3813241	0.30220924	-0.062098666	-0.85277157	0.0314385	0.032100735	-0.94434621	0.43191824	-0.14434129	-0.73030148	0.50315911	0.15491517	-0.93312378	0.4140183	-0.019122638	-0.74664086	0.49325471	0.028484386	-0.95262333	0.83837554	-0.15272665	-0.90923387	0.87018352	0.21709533	-0.85713897	0.92457785	-0.10607547	-0.83224118	0.95327352	0.13215919	-1.0120649	0.99746182	0.026786871	-0.84692542	1.3940629	-0.14768349	-0.87041609	1.4034738	0.18016705	-0.92046655	1.4491794	0.014732061	-0.99212749	1.0495559	-0.2253851	-1.0144096	1.0767916	0.27317529	-0.7796514	0.88136995	-0.21984411	-0.89795301	0.83301925	0.31764099
74	0.292	-1.2739297	0.10749188	-0.0931877	-0.63941674	0.039327617	0.060507435	-1.303274	0.26421147	-0.1179444	-0.78882029	0.054034215	0.085552508	-1.2820155	0.23816876	-0.024292685	-0.77085839	0.092995323	-0.0039254023	-1.3683418	0.30131187	-0.062455015	-0.85282735	0.031436575	0.032104496	-0.93164148	0.43343982	-0.14298236	-0.72855155	0.50296934	0.15507852	-0.9206477	0.41566551	-0.017772516	-0.74466859	0.49331045	0.028588509	-0.94623356	0.83995433	-0.15318069	-0.90405016	0.87177241	0.21743123	-0.85175574	0.92647241	-0.10559517	-0.82761367	0.95472948	0.13251281	-1.0067082	0.99915718	0.027107162	-0.8417862	1.395776	-0.1476108	-0.86488568	1.4052695	0.18025282	-0.91495145	1.4508216	0.014769155	-0.98713406	1.0513851	-0.22470376	-1.0085151	1.0783333	0.27359403	-0.77632269	0.8813806	-0.22003111	-0.89064492	0.83508523	0.31731856
75	0.296	-1.2578427	0.10782265	-0.093375951	-0.63955176	0.039359739	0.060616913	-1.2894496	0.26387125	-0.11782663	-0.78904128	0.054096692	0.085653053	-1.2691899	0.23785487	-0.023722076	-0.77091937	0.093053603	-0.0038077031	-1.355395	0.30016134	-0.062744085	-0.8528901	0.031438931	0.03211101	-0.91905211	0.43510565	-0.14156158	-0.72658174	0.50268747	0.15506661	-0.90829122	0.4175157	-0.01639307	-0.7428418	0.49335387	0.028739264	-0.93989508	0.84162044	-0.15348024	-0.89906849	0.8733271	0.21774627	-0.84657921	0.92836959	-0.10514703	-0.82321117	0.95617229	0.13285667	-1.0013653	1.0008845	0.027423852	-0.83667614	1.397516	-0.14755188	-0.8593871	1.4071047	0.18033277	-0.90943606	1.452486	0.014821655	-0.98222832	1.0532639	-0.22405947	-1.0026357	1.0799092	0.27398033	-0.77304807	0.8814394	-0.220217	-0.88337015	0.83718366	0.31697999
76	0.3	-1.2417007	0.10789725	-0.09330792	-0.63970174	0.039390166	0.060737889	-1.2755431	0.26324813	-0.11770693	-0.78904354	0.054080665	0.085649542	-1.2546445	0.23743968	-0.023694585	-0.77101781	0.093092892	-0.0036880523	-1.3423351	0.29869484	-0.063064608	-0.85296309	0.031442955	0.032119236	-0.90651901	0.43693197	-0.1401162	-0.7244148	0.50237853	0.15492948	-0.8960038	0.41955008	-0.014979038	-0.74111749	0.49336293	0.028922266	-0.93363054	0.84338305	-0.15353456	-0.89426815	0.87485003	0.2180361	-0.84150933	0.93028254	-0.10470578	-0.81866127	0.95761189	0.13321918	-0.99603381	1.0026381	0.02775087	-0.83158401	1.3992771	-0.14751558	-0.85391271	1.4089625	0.18039973	-0.90392655	1.4541603	0.014888119	-0.97748399	1.0551903	-0.22350578	-0.99677013	1.0815104	0.27433703	-0.76981526	0.8815513	-0.22040075	-0.87611911	0.8393075	0.31662704
